<svg version="1.1" xmlns="http://www.w3.org/2000/svg" xmlns:xlink="http://www.w3.org/1999/xlink" x="0px" y="0px" viewBox="0 0 220.54 169.79" style="enable-background:new 0 0 220.54 169.79;" xml:space="preserve">
<style type="text/css">
	.st0{opacity:0.4;fill:#020203;enable-background:new    ;}
	.st1{fill:#F5F3F1;}
	.st2{fill:#020203;}
	.st3{fill:#DBD4D0;}
	.st4{fill:#DBD4D0;stroke:#000000;stroke-miterlimit:10;}
	.st5{fill:#C2B9AF;stroke:#000000;stroke-miterlimit:10;}
	.st6{fill:#F5F3F1;stroke:#000000;stroke-miterlimit:10;}
	.st7{fill:none;stroke:#000000;stroke-miterlimit:10;}
	.st8{fill:none;}
	.st9{fill:none;stroke:#020203;}
	.st10{fill:#EDE5DF;stroke:#020203;stroke-width:0.8811;stroke-linecap:round;stroke-linejoin:round;stroke-miterlimit:10.0002;}
	.st11{fill:none;stroke:#020203;stroke-width:0.8811;stroke-linecap:round;stroke-linejoin:round;stroke-miterlimit:10;}
	.st12{fill:#EDE5DF;stroke:#020203;stroke-linecap:round;stroke-linejoin:round;stroke-miterlimit:10;}
	.st13{fill:none;stroke:#020203;stroke-linecap:round;stroke-linejoin:round;stroke-miterlimit:10;}
	.st14{opacity:0.3;fill:#020203;enable-background:new    ;}
	.st15{fill:#EDEAE7;}
	.st16{fill:#C2B9AF;}
	.st17{fill:#020203;stroke:#020203;stroke-width:0.2;}
	.st18{fill:none;stroke:#020203;stroke-width:0.8811;stroke-linecap:round;stroke-linejoin:round;stroke-miterlimit:10.0002;}
	.st19{fill-rule:evenodd;clip-rule:evenodd;fill:#020203;stroke:#020203;stroke-width:0.1;}
	.st20{fill:#C2B9AF;stroke:#020203;stroke-miterlimit:10;}
	.st21{fill:none;stroke:#000000;stroke-width:2;stroke-miterlimit:10;}
	.st22{clip-path:url(#SVGID_00000066496687925832115370000002834680879829248922_);fill:none;stroke:#000000;stroke-miterlimit:10;}
	.st23{clip-path:url(#SVGID_00000066496687925832115370000002834680879829248922_);}
	.st24{clip-path:url(#SVGID_00000010289708850454547890000000435852472898486715_);}
	.st25{fill:#FFFFFF;stroke:#000000;stroke-miterlimit:10;}
	.st26{clip-path:url(#SVGID_00000044895263021430816570000011537941812543931063_);}
	.st27{clip-path:url(#SVGID_00000140730176923576409270000004942186906437716886_);fill:#DBD4D0;}
	
		.st28{clip-path:url(#SVGID_00000140730176923576409270000004942186906437716886_);fill:none;stroke:#010202;stroke-width:0.2724;stroke-miterlimit:10;}
	.st29{clip-path:url(#SVGID_00000140730176923576409270000004942186906437716886_);}
	.st30{clip-path:url(#SVGID_00000156547977926880861000000013702082747723753909_);fill:#DBD4D0;}
	
		.st31{clip-path:url(#SVGID_00000156547977926880861000000013702082747723753909_);fill:none;stroke:#010202;stroke-width:0.2724;stroke-miterlimit:10;}
	.st32{fill:#F5F3F1;stroke:#020203;stroke-miterlimit:10;}
	.st33{fill:#DBD4D0;stroke:#020203;stroke-miterlimit:10;}
	.st34{fill:#FFFFFF;}
</style>
	<path class="st13" d="M51.86,94.56l123.13-39.92"></path>
	<path class="st13" d="M133.53,88.69l-4.27,21.4l8.47,5.52c0,0,7.69-14.54,15.03-21.05"></path>
	<path class="st13" d="M88.22,89.81c0,0-3.36,24.4-3.56,25.8c-0.21,1.4,0.63,1.96,2.31,1.96c1.67,0,3.98,0,3.98,0"></path>
	<path class="st13" d="M61.79,144.63c-0.13-3.57-0.41-7.27,0.84-9.79c1.26-2.52,10.98-23.49,12.24-25.94
		c1.26-2.45,2.03-4.96,1.19-7.62c-0.84-2.66-1.47-5.03-1.4-9.58c0.13-4.55,0.63-13.08,1.05-18.53c0.7-8.25-5.8-18.11-16.78-15.8"></path>
	<path class="st13" d="M52.49,60.58c-1.25,2.73-3.14,12.45-3.71,14.54c-0.56,2.1-0.98,3.57,1.83,4.75c2.79,1.19,3.84,0.56,5.45-0.63
		c1.61-1.19,8.32-5.38,8.32-5.38"></path>
	<path class="st13" d="M111.37,24.92c-1.96-0.07-6.09-0.07-7.41,0c-1.33,0.07-3.08,0.98-4.69,1.82c-1.6,0.84-9.16,6.57-10.83,8.04
		c-1.61,1.47-1.26,3.29,1.05,4.48c2.31,1.19,10.07,6.64,11.47,7.69c1.4,1.05,1.82,2.38,1.47,4.62c-0.35,2.24-1.75,16.85-1.75,16.85"></path>
	<path class="st13" d="M105.78,74.01c1.05-4.2,13.91-9.58,23.21-7.27"></path>
	<path class="st13" d="M130.53,54.5l0.35,5.1"></path>
	<path class="st13" d="M140.87,63.52c-0.28-3.43-2.52-14.33-2.79-16.01c-0.29-1.68-1.75-3.08-4.62-4.4
		c-2.86-1.33-6.22-2.59-6.22-2.59"></path>
	<path class="st13" d="M124.93,30.86c0.28-6.01-4.26-9.72-4.26-9.72s-6.01,2.8-6.64,7.27c-0.63,4.47-0.56,4.75-0.71,5.59
		c-0.13,0.84-2.72,4.47-3.29,5.38c-0.63,0.91-0.56,1.75,0.42,2.73c0.98,0.98,5.04,5.59,12.51,1.68"></path>
	<path class="st13" d="M100.11,34.15c0,0,7.06,2.87,8.39,3.57"></path>
	<path class="st13" d="M82.42,57.99c-1.19-6.01-6.51-10.49-12.8-10.49c-5.38,0-10.07,3.29-12.02,7.97"></path>
	<path class="st13" d="M64.38,43.1c0.71-2.94,0.91-4.27,1.26-5.59c0.35-1.33-1.26-3.99-1.26-3.99s0.98-3.29-0.35-6.99
		c-1.4-3.85-3.63-4.69-3.63-4.69s-3.14,1.4-4.55,4.27c-1.4,2.87-1.67,6.01-1.67,6.01s4.68-0.21,7.97,0.56"></path>
	<path class="st13" d="M52.91,34.71c0,0-0.56,2.73-1.53,5.52c-0.98,2.87-3.57,5.73-3.57,5.73s-1.12,3.43,0.63,10.28"></path>
	<path class="st13" d="M46.69,41.21c-2.59-0.21-6.22,0.35-8.6,2.8c-2.3,2.52-15.1,15.87-16.85,17.83c-1.75,1.96-2.73,6.43,0.83,6.43
		c3.57,0,21.4,0.98,21.4,0.98"></path>
	<path class="st13" d="M38.37,75.12c0,0-5.88,7.69-6.86,9.65c-1.05,1.96-1.54,5.31-1.12,9.02c0.42,3.71,1.12,22.86,1.12,24.4
		c0,1.54,0.49,3.71,5.45,3.92"></path>
	<path class="st13" d="M42.21,143.44c0,0,0.63-10.49,0-16.29c-0.63-5.87-2.24-9.51-3.08-11.54c-0.83-2.03-0.28-5.8,0.49-9.37
		c0.77-3.57,3.29-11.68,3.29-11.68"></path>
	<path class="st13" d="M143.39,67.85c0,0,5.39,1.47,9.3,5.59c3.92,4.12,4.62,7.9,4.62,7.9s3.43,1.05,4.13,1.4
		c0.7,0.35,0.48,1.12-0.77,1.96c-1.26,0.84-4.33,2.66-4.33,2.66"></path>
	<path class="st13" d="M158.21,88.27c0,0,0.84,13.84-3.63,26.08"></path>
	<path class="st13" d="M195.34,87.92c0,0,7.06-4.4,10.28-6.5c3.21-2.17,4.05-3.92,4.26-8.32c0.28-4.4,0.21-7.41,0-10.14
		c-0.21-2.73-1.54-7.27-6.78-9.58"></path>
	<path class="st13" d="M200.1,52.82c0.06-4.89,0.13-5.73,0-8.32c-0.29-5.45-6.36-9.86-6.36-9.86s-5.46,4.06-6.01,9.09
		c-0.56,5.03-0.56,9.65-0.56,9.65"></path>
	<path class="st13" d="M183.18,52.68c-2.59,1.4-4.68,2.24-5.67,6.43c-0.98,4.2-6.92,22.1-8.04,25.8c-1.19,3.71-1.05,7.27-1.05,7.27"></path>
	<path class="st13" d="M183.18,80.93c-6.64,3.08-13.14,8.67-14.75,17.83c-1.61,9.16-0.63,16.36-0.63,16.36"></path>
	<path class="st13" d="M181.64,97.36c-4.82,4.75-6.43,8.67-5.87,16.36"></path>
	<path class="st13" d="M202.2,97.99c1.54,1.61,3.29,5.1,3.91,11.19"></path>
</svg>