<svg version="1.1" id="Layer_1" xmlns="http://www.w3.org/2000/svg" xmlns:xlink="http://www.w3.org/1999/xlink" x="0px" y="0px" viewBox="0 0 512 512" style="enable-background:new 0 0 512 512;" xml:space="preserve"><g><g><path d="M433.454,186.646c-5.893-8.767-18.917-8.918-24.911,0C391.401,212.032,346,283.926,346,317.003 c0,24.484,11.796,46.261,30,59.958v35.292c-21.805-26.963-53.758-45.388-89.999-49.413v-15.838c0-0.229-0.024-0.453-0.034-0.679 c2.907-2.28,5.684-4.789,8.303-7.529C308.283,324.135,316,305.031,316,285.002v-78.72c18.951-6.631,34.281-21.689,40.895-41.531 c12.584-37.753-10.811-78.027-49.807-85.825l-79.461-15.892C232.881,44.013,250.329,30,271,30c8.284,0,15-6.716,15-15 c0-8.284-6.716-15-15-15c-35.202,0-64.8,24.384-72.834,57.143l-58.94-11.788C92.93,36.096,52.099,76.973,61.35,123.229 l6.715,33.573c4.297,21.487,18.863,38.855,37.938,47.415v80.786c0,20.029,7.718,39.132,21.731,53.791 c2.619,2.74,5.396,5.249,8.303,7.529c-0.01,0.227-0.034,0.45-0.034,0.679v15.838C68.597,370.326,16.003,427.632,16.003,497 c0,8.284,6.716,15,15,15c8.471,0,412.488,0,419.994,0c8.284,0,15-6.716,15-15V376.961c18.204-13.697,30-35.474,30-59.958 C495.997,284.224,451.228,212.969,433.454,186.646z M97.481,150.92l-6.714-33.574c-5.07-25.342,17.18-47.651,42.574-42.574 l167.863,33.573c21.335,4.268,34.105,26.296,27.229,46.92c-4.933,14.798-18.727,24.741-34.325,24.741h-23.151 c9.438-12.544,15.041-28.129,15.041-44.999c0-8.284-6.716-15-15-15s-15,6.716-15,15c0,24.813-20.187,44.999-44.999,44.999 c-24.813,0-44.999-20.187-44.999-44.999c0-8.284-6.716-15-15-15s-15,6.716-15,15c0,16.871,5.603,32.456,15.041,44.999H132.96 C115.772,180.006,100.852,167.774,97.481,150.92z M136.002,285.003v-75.099H286v75.099c0,25.477-20.607,46.999-44.999,46.999 h-59.999C156.608,332.002,136.002,310.48,136.002,285.003z M47.071,482.001c6.937-48.281,46.845-86.057,96.099-89.706 l55.267,82.901c2.709,4.157,7.459,6.791,12.509,6.805H47.071z M166.001,372.461v-10.559c14.799,0,80.874,0,89.999,0v10.559 l-44.999,67.499L166.001,372.461z M211.055,482c4.939-0.013,9.653-2.541,12.426-6.68l55.35-83.026 c49.253,3.65,89.163,41.425,96.099,89.706H211.055z M435.998,482h-30v-91.508c4.848,0.988,9.864,1.509,15,1.509 s10.152-0.521,15-1.509V482z M420.998,362.003c-24.813,0-44.999-20.187-44.999-44.999c0-12.61,13.807-41.223,30-69.448v37.448 c0,8.284,6.716,15,15,15s15-6.716,15-15v-37.461c16.193,28.221,30,56.835,30,69.46 C465.997,341.816,445.81,362.003,420.998,362.003z"></path></g></g></svg>