<svg id="Glyph" enable-background="new 0 0 32 32" viewBox="0 0 32 32" xmlns="http://www.w3.org/2000/svg">
    <path id="XMLID_237_" fill="#FFFFFF" d="m6 12v15c0 1.654 1.346 3 3 3h14c1.654 0 3-1.346 3-3v-15zm6 13c0 .552-.448 1-1 1s-1-.448-1-1v-9c0-.552.448-1 1-1s1 .448 1 1zm5 0c0 .552-.448 1-1 1s-1-.448-1-1v-9c0-.552.448-1 1-1s1 .448 1 1zm5 0c0 .552-.448 1-1 1s-1-.448-1-1v-9c0-.552.448-1 1-1s1 .448 1 1z"></path>
    <path id="XMLID_243_" fill="#FFFFFF" d="m27 6h-6v-1c0-1.654-1.346-3-3-3h-4c-1.654 0-3 1.346-3 3v1h-6c-1.103 0-2 .897-2 2v1c0 .552.448 1 1 1h24c.552 0 1-.448 1-1v-1c0-1.103-.897-2-2-2zm-14-1c0-.551.449-1 1-1h4c.551 0 1 .449 1 1v1h-6z"></path>
</svg>